<?xml version="1.0" standalone="no"?><!DOCTYPE svg PUBLIC "-//W3C//DTD SVG 1.1//EN" "http://www.w3.org/Graphics/SVG/1.1/DTD/svg11.dtd"><svg t="1782823917812" class="icon" viewBox="0 0 1024 1024" version="1.1" xmlns="http://www.w3.org/2000/svg" p-id="27054" xmlns:xlink="http://www.w3.org/1999/xlink" width="200" height="200"><path d="M924.436 966.597l-822.122 0.022c-19.669-0.022-37.697-18.675-37.746-38.941V687.254c0-39.05 19.013-59.486 38.974-39.909l111.179 90.279c14.934 13.192 37.385 31.14 49.879 15.492l127.428-159.612c12.496-15.651 35.037-37.742 50.095-24.684l109.658 98.487c15.047 13.048 46.204 35.826 58.452 19.948l272.839-339.201c36.851-43.394 77.952-33.214 77.952 19.953v559.671c0 20.267-16.934 38.941-36.596 38.919h0.006m-319.96-416.596c-10.103 13.351-25.015 21.864-41.322 23.639-16.347 1.995-32.625-3.403-45.17-14.28L394.299 451.899 270.068 621.054c-9.926 13.481-24.708 22.261-41.003 24.259-2.166 0.277-4.672 0.436-7.216 0.436-13.755 0-27.285-4.945-38.124-14.108L75.31 540.133c-25.811-21.769-29.617-61.031-8.508-87.665 21.099-26.662 59.142-30.558 84.948-8.773l59.931 50.578 124.754-169.904c10.01-13.633 24.971-22.4 41.415-24.303 16.561-1.862 32.937 3.29 45.597 14.242l124.361 108.07 160.688-207.906-44.782-38.366c-31.779-27.22-24.716-56.708 15.682-65.524l232.862-50.81c40.398-8.818 52.892 11.633 27.769 45.458L604.47 550.001m0.004 0z" p-id="27055"></path></svg>