<?xml version="1.0" standalone="no"?><!DOCTYPE svg PUBLIC "-//W3C//DTD SVG 1.1//EN" "http://www.w3.org/Graphics/SVG/1.1/DTD/svg11.dtd"><svg t="1782824205458" class="icon" viewBox="0 0 1024 1024" version="1.1" xmlns="http://www.w3.org/2000/svg" p-id="33380" xmlns:xlink="http://www.w3.org/1999/xlink" width="48" height="48"><path d="M129.113613 233.830583c0-33.397644 0.058328-66.795289-0.088004-100.19191-0.01535-3.465938 0.826831-4.272303 4.27742-4.266164 66.51695 0.11461 133.034922 0.116657 199.551872-0.001023 3.587712-0.00614 4.546549 0.75827 4.539386 4.468778-0.12996 66.51695-0.12382 133.034922-0.011256 199.551872 0.00614 3.482311-0.886183 4.294816-4.322445 4.2897-66.656119-0.109494-133.312238-0.106424-199.968357-0.005117-3.263323 0.005117-4.068665-0.830925-4.056386-4.069689C129.161708 300.347532 129.113613 267.089058 129.113613 233.830583z" fill="#276aff" p-id="33381"></path><path d="M614.95586 233.870492c0 33.255405-0.052189 66.51081 0.081864 99.765191 0.013303 3.324722-0.930185 4.040013-4.114714 4.034896-66.648956-0.093121-133.297912-0.101307-199.946868 0.017396-3.544733 0.00614-4.236488-0.976234-4.230348-4.349051 0.106424-66.648956 0.107447-133.297912-0.002047-199.946868-0.005117-3.348258 0.958838-4.00829 4.113691-4.003174 66.648956 0.091074 133.297912 0.101307 199.946868-0.019443 3.53143-0.00614 4.248767 0.932232 4.234441 4.320399C614.901625 167.082366 614.95586 200.475917 614.95586 233.870492z" fill="#276aff" p-id="33382"></path><path d="M788.918937 129.457444c33.263591 0 66.527183 0.052189 99.789751-0.081864 3.297093-0.013303 4.03592 0.87288 4.030803 4.079922-0.097214 66.665329-0.101307 133.330658 0.010233 199.994963 0.00614 3.434216-0.778736 4.306072-4.266164 4.299933-66.526159-0.115634-133.053342-0.119727-199.579501 0.00614-3.689019 0.007163-4.51892-0.908696-4.51278-4.541433 0.12075-66.388013 0.12382-132.776026-0.00307-199.163015-0.007163-3.825119 1.006933-4.701069 4.740978-4.683672C722.392778 129.520889 755.656369 129.457444 788.918937 129.457444z" fill="#276aff" p-id="33383"></path><path d="M232.726435 615.267968c-33.259498 0-66.517973-0.040932-99.776448 0.068562-2.981914 0.010233-3.924379-0.537236-3.919263-3.773953 0.110517-66.933435 0.101307-133.867894 0.019443-200.801329-0.00307-2.822278 0.557702-3.701299 3.568269-3.697205 67.072605 0.095167 134.14521 0.084934 201.216791 0.022513 2.568499-0.002047 3.5345 0.484024 3.53143 3.345188-0.084934 67.210751-0.095167 134.421502 0.016373 201.632253 0.00614 3.500731-1.714038 3.229554-4.047176 3.227508C299.79904 615.257735 266.262226 615.267968 232.726435 615.267968z" fill="#276aff" p-id="33384"></path><path d="M510.49267 615.267968c-33.116235 0-66.233494-0.046049-99.349729 0.072655-3.247974 0.011256-4.421706-0.470721-4.414543-4.14746 0.130983-66.647933 0.128937-133.296889 0.00307-199.945845-0.007163-3.609201 1.063215-4.193509 4.374634-4.188392 66.509786 0.100284 133.020596 0.115634 199.530382-0.028653 3.844561-0.008186 4.40124 1.139963 4.3951 4.596691-0.103354 66.37164-0.11768 132.74328 0.025583 199.113897 0.008186 3.963265-1.205455 4.619204-4.800329 4.604878C577.00348 615.213733 543.748075 615.267968 510.49267 615.267968z" fill="#276aff" p-id="33385"></path><path d="M788.321326 615.267968c-33.259498 0-66.517973-0.040932-99.777471 0.067538-3.1262 0.010233-4.1536-0.613984-4.148483-4.002151 0.112564-66.795289 0.106424-133.590578 0.01228-200.385866-0.004093-3.080152 0.713244-3.892657 3.852748-3.88754 66.933435 0.099261 133.867894 0.10847 200.801329-0.016373 3.431146-0.00614 3.65832 1.25048 3.656273 4.03285-0.065492 66.795289-0.073678 133.590578 0.019443 200.385866 0.004093 3.041266-0.632403 3.898797-3.807722 3.886517C855.394954 615.216803 821.85814 615.266945 788.321326 615.267968z" fill="#276aff" p-id="33386"></path><path d="M233.518474 684.811858c33.260521 0 66.522066 0.050142 99.782587-0.078795 3.300162-0.013303 4.075829 0.893346 4.071735 4.117784-0.095167 66.660212-0.103354 133.320425 0.01535 199.980637 0.00614 3.544733-0.969071 4.239558-4.344958 4.234441-66.660212-0.106424-133.320425-0.106424-199.980637 0.002047-3.313465 0.005117-4.025687-0.898463-4.02057-4.087085 0.095167-66.660212 0.102331-133.320425-0.014326-199.980637-0.00614-3.479241 0.847298-4.287653 4.29277-4.273327C166.720116 684.869163 200.119807 684.811858 233.518474 684.811858z" fill="#276aff" p-id="33387"></path><path d="M510.86413 684.810834c33.257451 0 66.514903 0.047072 99.771331-0.073678 3.27458-0.01228 4.421706 0.512676 4.414543 4.173043-0.128937 66.653049-0.127913 133.306098-0.00307 199.959148 0.007163 3.588735-1.030469 4.198625-4.358261 4.193509-66.514903-0.102331-133.028782-0.116657-199.543685 0.027629-3.832282 0.008186-4.402263-1.121544-4.397147-4.584412 0.103354-66.375733 0.115634-132.75249-0.022513-199.128223-0.008186-3.913123 1.12973-4.66423 4.78191-4.64888C444.626543 684.869163 477.744825 684.810834 510.86413 684.810834z" fill="#276aff" p-id="33388"></path><path d="M892.666836 788.600689c0 33.399691-0.058328 66.799382 0.086981 100.19805 0.01535 3.455705-0.810459 4.278443-4.27128 4.272303-66.521043-0.115634-133.043109-0.11768-199.564152 0.002047-3.604084 0.00614-4.538363-0.781806-4.5312-4.477988 0.127913-66.521043 0.121773-133.043109 0.010233-199.564152-0.00614-3.470031 0.868787-4.307096 4.316306-4.300956 66.660212 0.109494 133.320425 0.107447 199.980637 0.005117 3.28379-0.005117 4.058432 0.86674 4.047176 4.084015C892.619764 722.078623 892.666836 755.340167 892.666836 788.600689z" fill="#276aff" p-id="33389"></path></svg>