<?xml version="1.0" standalone="no"?><!DOCTYPE svg PUBLIC "-//W3C//DTD SVG 1.1//EN" "http://www.w3.org/Graphics/SVG/1.1/DTD/svg11.dtd"><svg t="1782823241581" class="icon" viewBox="0 0 1024 1024" version="1.1" xmlns="http://www.w3.org/2000/svg" p-id="18338" xmlns:xlink="http://www.w3.org/1999/xlink" width="200" height="200"><path d="M686.464 701.184h-348.8c28.544 175.936 96 299.52 174.4 299.584h0.064c78.464 0 145.856-123.648 174.336-299.584zM337.664 322.816h348.8C657.92 146.816 590.528 23.232 512.064 23.232c-78.4 0-145.792 123.584-174.4 299.584zM372.544 43.776a489.408 489.408 0 0 0-311.168 279.04h212.864c17.152-112.192 50.24-212.48 98.304-279.04zM266.176 638.08A1323.968 1323.968 0 0 1 259.84 512c0-42.368 2.368-84.736 6.464-126.144H40.32a491.136 491.136 0 0 0-16.96 125.76v0.768c0 43.584 6.272 85.504 16.96 125.696h225.856zM757.888 385.856c4.096 41.408 6.464 83.776 6.464 126.144 0 42.368-2.368 84.8-6.464 126.144h225.856a482.368 482.368 0 0 0 16.896-125.696v-0.896a492.992 492.992 0 0 0-16.704-125.696h-226.048zM61.376 701.184a489.856 489.856 0 0 0 311.424 279.04c-48.064-66.624-81.216-166.912-98.56-279.04H61.376zM962.88 322.816a489.856 489.856 0 0 0-311.424-279.04c48.064 66.56 81.216 166.848 98.56 279.04h212.864zM651.648 980.224a490.432 490.432 0 0 0 311.424-279.04h-212.928c-17.28 112.128-50.368 212.416-98.496 279.04zM701.12 512c0-43.776-2.368-85.696-6.528-126.144H329.408a1229.056 1229.056 0 0 0 0 252.288h365.184c4.16-40.384 6.528-82.368 6.528-126.144z" fill="#333333" p-id="18339"></path></svg>