<?xml version="1.0" standalone="no"?><!DOCTYPE svg PUBLIC "-//W3C//DTD SVG 1.1//EN" "http://www.w3.org/Graphics/SVG/1.1/DTD/svg11.dtd"><svg t="1782823058312" class="icon" viewBox="0 0 1024 1024" version="1.1" xmlns="http://www.w3.org/2000/svg" p-id="2716" xmlns:xlink="http://www.w3.org/1999/xlink" width="200" height="200"><path d="M512 85.333333c235.648 0 426.666667 191.018667 426.666667 426.666667s-191.018667 426.666667-426.666667 426.666667S85.333333 747.648 85.333333 512 276.352 85.333333 512 85.333333z m0.512 576a53.333333 53.333333 0 1 0 0 106.666667 53.333333 53.333333 0 0 0 0-106.666667zM512 256a149.333333 149.333333 0 0 0-149.333333 149.333333 42.666667 42.666667 0 0 0 85.333333 0l0.298667-6.144A64 64 0 0 1 576 405.333333c0 25.301333-7.296 35.626667-36.181333 57.216l-13.824 10.453334c-38.912 30.464-56.405333 56.533333-56.661334 103.082666a42.666667 42.666667 0 0 0 85.333334 0.469334l0.128-3.754667c0.981333-13.141333 7.253333-20.352 30.293333-37.546667l14.037333-10.666666C641.706667 491.093333 661.333333 460.117333 661.333333 405.333333A149.333333 149.333333 0 0 0 512 256z" fill="#000000" p-id="2717"></path></svg>